# xmcd CD database file
#
# Track frame offsets:
#	150
#	10695
#	20360
#	34825
#	46380
#	59110
#	71845
#	82920
#	97465
#	117340
#	134290
#	146820
#	158655
#	169965
#	182344
#	197239
#	210359
#	222019
#
# Disc length: 3177 seconds
#
# Revision: 0
# Processed by: cddbd v1.5.2PL0 Copyright (c) Steve Scherf et al.
# Submitted via: CDex 1.51
#
DISCID=050c6712
DTITLE=MARTY ROBBINS - The Great MARTY ROBBINS
DYEAR=1900
DGENRE=Country
TTITLE0=Bouquet Of Roses
TTITLE1=Half As Much
TTITLE2=Have I Told You Lately That I Love You
TTITLE3=A White Sport Coat
TTITLE4=I'm so Lonesome I Could cry
TTITLE5=Streets Of  Laredo
TTITLE6=Red River Valley
TTITLE7=Cool Water
TTITLE8=El Paso
TTITLE9=My Elusive Dreams
TTITLE10=Am I That Easy To Forget
TTITLE11=Among My Souveniers
TTITLE12=My Blue Heaven
TTITLE13=Tonight Carmen
TTITLE14=She Thinks I Still Care
TTITLE15=Devil Woman
TTITLE16=My Happiness
TTITLE17=My woman, My Woman, My Wife
EXTD=
EXTT0=
EXTT1=
EXTT2=
EXTT3=
EXTT4=
EXTT5=
EXTT6=
EXTT7=
EXTT8=
EXTT9=
EXTT10=
EXTT11=
EXTT12=
EXTT13=
EXTT14=
EXTT15=
EXTT16=
EXTT17=
PLAYORDER=
